<svg width="218" height="52" viewBox="0 0 218 52" fill="none" xmlns="http://www.w3.org/2000/svg">
<rect width="218" height="51.7073" rx="8" fill="#212330" fill-opacity="0.62"/>
<path d="M24.9756 23.5122L28 33.0731L30.9268 23.5122V22.9268C30.8943 22.8618 30.7707 22.6536 30.5366 22.3414C30.3024 22.0292 30.1789 21.5609 30.1463 21.3658V19.4146C30.1463 18.7902 29.626 18.3089 29.3659 18.1463C29.0732 17.9837 28.2927 17.6585 27.5122 17.6585C26.7317 17.6585 26.3415 18.0488 26.2439 18.2439C26.0813 18.2439 25.6781 18.2829 25.3659 18.439C25.0537 18.5951 25.0407 19.0244 25.0732 19.2195H25.8537C26.0878 19.2195 26.3089 19.2195 26.439 19.4146C26.5691 19.6097 26.8293 20.1366 26.8293 20.6829C26.8293 21.3658 26.6342 21.7561 26.2439 22.1463C25.9221 22.4681 25.3008 22.8943 24.9756 23.0244V23.5122Z" fill="white"/>
<path d="M27.2195 40.7805C27.2195 39.9024 27.7724 38.4065 28 37.7561C28.2276 38.4716 28.6829 39.8049 28.6829 40.7805C28.6829 42.9268 28.2927 43.0244 28 43.7073C27.7073 43.0894 27.2195 42.9268 27.2195 40.7805Z" fill="white"/>
<path d="M23.7073 34.9268C24.0975 34.3415 24.748 32.7805 24.9756 32L25.3658 32.1951C25.3658 32.6829 25.1512 34.1659 24.6829 35.4146C24.2146 36.6634 22.6666 36.9106 21.9512 36.878C22.3414 36.4228 23.3399 35.4779 23.7073 34.9268Z" fill="white"/>
<path d="M25.561 39.8049C25.9512 39.1805 26.9919 37.0407 27.3171 36.1951C27.3171 37.4634 27.3171 39.664 26.3415 41.0732C25.7336 41.9512 24.4228 41.9837 23.8049 41.9512C24.3252 41.3984 25.1707 40.4293 25.561 39.8049Z" fill="white"/>
<path d="M26.3415 35.2195C26.3415 34.8292 26.0488 33.9512 25.8536 33.4634C26.439 33.9512 27.0244 34.5365 27.0244 35.2195C27.0244 35.9024 26.8804 36.3935 26.5366 37.2683C26.2764 37.9303 25.8552 38.5065 25.561 38.9268C25.0146 39.7073 24.3577 40.2276 24.0976 40.3902H21.3658L24 38.6341C24.4683 38.3219 25.3658 37.4634 25.9512 36.3902C26.0488 36.1626 26.3415 35.6174 26.3415 35.2195Z" fill="white"/>
<path d="M22.5366 33.1708C21.9903 33.7952 20.2277 34.8618 19.4146 35.3171C20.1626 35.4472 21.8537 35.5708 22.6342 35.0244C23.4146 34.4781 24.2602 32.7155 24.5854 31.9025L24.0976 31.2195C23.8049 31.6098 23.0829 32.5464 22.5366 33.1708Z" fill="white"/>
<path d="M25.4634 29.0732C24.9171 27.2781 24.9106 24.6179 24.9756 23.5122L24.6829 23.4147C24.0975 24.1626 22.9268 26.3415 22.9268 28.683C22.9268 31.0244 26.0488 33.6261 27.6097 34.6342C27.1219 33.5285 26.0097 30.8683 25.4634 29.0732Z" fill="white"/>
<path d="M22.1463 27.9025C22.1463 26.4196 23.7723 24.0651 24.5854 23.4147H23.9024C22.4715 24.0651 19.6097 25.7171 19.6097 27.122C19.6097 28.5269 21.4309 30.5041 22.3414 31.3171C22.2764 30.5691 22.1463 29.3854 22.1463 27.9025Z" fill="white"/>
<path d="M18.2439 25.0732C19.0244 25.0732 22.4065 23.9024 24 23.3171L23.9024 23.0244L14.0488 22.0488C15.1219 23.0569 17.4634 25.0732 18.2439 25.0732Z" fill="white"/>
<path d="M13.2683 20.4878C14.439 21.7366 20.9106 22.5691 24 22.8293V22.6342L10.439 15.5122C10.8943 16.6504 12.0976 19.239 13.2683 20.4878Z" fill="white"/>
<path d="M24.6829 22.5366C24.6829 22.8488 24.8455 22.9919 24.9756 23.0244V23.5122L23.9024 23.4146V23.0244L24 22.6341C20 20.3252 11.5317 15.2195 10.0488 14.0488C8.56585 12.878 8.06504 9.52846 8 8C8.65041 8.71545 10.0683 10.322 10.5366 11.0244C11.0049 11.7268 13.5935 13.6585 14.8293 14.5366C17.4959 16.0325 22.9659 19.1805 23.5122 19.8049C24.1951 20.5854 24.6829 22.1463 24.6829 22.5366Z" fill="white"/>
<path d="M32.2927 34.9268C31.9025 34.3415 31.252 32.7805 31.0244 32L30.6342 32.1951C30.6342 32.6829 30.8488 34.1659 31.3171 35.4146C31.7854 36.6634 33.3334 36.9106 34.0488 36.878C33.6586 36.4228 32.6601 35.4779 32.2927 34.9268Z" fill="white"/>
<path d="M30.439 39.8049C30.0488 39.1805 29.0081 37.0407 28.6829 36.1951C28.6829 37.4634 28.6829 39.664 29.6585 41.0732C30.2664 41.9512 31.5772 41.9837 32.1951 41.9512C31.6748 41.3984 30.8293 40.4293 30.439 39.8049Z" fill="white"/>
<path d="M29.6585 35.2195C29.6585 34.8292 29.9512 33.9512 30.1464 33.4634C29.561 33.9512 28.9756 34.5365 28.9756 35.2195C28.9756 35.9024 29.1196 36.3935 29.4634 37.2683C29.7236 37.9303 30.1448 38.5065 30.439 38.9268C30.9854 39.7073 31.6423 40.2276 31.9024 40.3902H34.6342L32 38.6341C31.5317 38.3219 30.6342 37.4634 30.0488 36.3902C29.9512 36.1626 29.6585 35.6174 29.6585 35.2195Z" fill="white"/>
<path d="M33.4634 33.1708C34.0097 33.7952 35.7723 34.8618 36.5854 35.3171C35.8374 35.4472 34.1463 35.5708 33.3658 35.0244C32.5854 34.4781 31.7398 32.7155 31.4146 31.9025L31.9024 31.2195C32.1951 31.6098 32.9171 32.5464 33.4634 33.1708Z" fill="white"/>
<path d="M30.5366 29.0732C31.0829 27.2781 30.9919 24.6179 30.9268 23.5122L31.3171 23.4147C31.9025 24.1626 33.0732 26.3415 33.0732 28.683C33.0732 31.0244 29.9512 33.6261 28.3903 34.6342C28.8781 33.5285 29.9903 30.8683 30.5366 29.0732Z" fill="white"/>
<path d="M33.8536 27.9025C33.8536 26.4196 32.2276 24.0651 31.4146 23.4147H32.0975C33.5284 24.0651 36.3902 25.7171 36.3902 27.122C36.3902 28.5269 34.5691 30.5041 33.6585 31.3171C33.7236 30.5691 33.8536 29.3854 33.8536 27.9025Z" fill="white"/>
<path d="M37.7561 25.0732C36.9756 25.0732 33.5935 23.9024 32 23.3171L32.0976 23.0244L41.9512 22.0488C40.8781 23.0569 38.5366 25.0732 37.7561 25.0732Z" fill="white"/>
<path d="M42.7317 20.4878C41.561 21.7366 35.0894 22.5691 32 22.8293V22.6342L45.561 15.5122C45.1057 16.6504 43.9024 19.239 42.7317 20.4878Z" fill="white"/>
<path d="M31.3171 22.5366C31.3171 22.8488 31.0569 22.8943 30.9268 22.9268V23.5122L32.0976 23.4146V23.0244L32 22.6341C36 20.3252 44.4683 15.2195 45.9512 14.0488C47.4341 12.878 47.935 9.52846 48 8C47.3496 8.71545 45.9317 10.322 45.4634 11.0244C44.9951 11.7268 42.4065 13.6585 41.1707 14.5366C38.5041 16.0325 33.0341 19.1805 32.4878 19.8049C31.8049 20.5854 31.3171 22.1463 31.3171 22.5366Z" fill="white"/>
<path d="M67.904 37.0135C66.88 37.0135 65.8667 36.7362 64.864 36.1815C63.8613 35.6055 63.0613 34.4962 62.464 32.8535L61.664 30.7735H52.704L50.144 36.8535H48.704L57.664 15.7335H58.624L65.664 32.8535C66.1973 34.0908 66.6987 34.9442 67.168 35.4135C67.6373 35.8615 68.3093 36.1282 69.184 36.2135V36.8535C68.8 36.9602 68.3733 37.0135 67.904 37.0135ZM61.024 29.4935L57.184 20.2135L53.184 29.4935H61.024ZM71.687 17.0135C69.0203 17.0135 67.687 18.2402 67.687 20.6935H67.047V18.2935C67.047 16.5868 67.9537 15.7335 69.767 15.7335H84.647V17.0135H77.447V36.8535H74.567V17.0135H71.687ZM88.4233 19.5735C88.4233 18.4855 88.2739 17.6855 87.9753 17.1735C87.6766 16.6402 87.0793 16.3735 86.1833 16.3735H85.5433V15.7335H88.4233C89.2126 15.7335 89.7993 15.8402 90.1833 16.0535C90.5886 16.2455 90.8766 16.6082 91.0473 17.1415C91.2179 17.6748 91.3033 18.4855 91.3033 19.5735V25.3335H100.903V15.7335H103.783V33.0135C103.783 34.1015 103.933 34.9122 104.231 35.4455C104.53 35.9575 105.127 36.2135 106.023 36.2135H106.663V36.8535H103.783C102.994 36.8535 102.397 36.7575 101.991 36.5655C101.607 36.3522 101.33 35.9788 101.159 35.4455C100.989 34.9122 100.903 34.1015 100.903 33.0135V26.6135H91.3033V36.8535H88.4233V19.5735ZM110.611 19.5735C110.611 18.4855 110.461 17.6855 110.163 17.1735C109.864 16.6402 109.267 16.3735 108.371 16.3735H107.731V15.7335H121.363C123.176 15.7335 124.083 16.5868 124.083 18.2935V20.6935H123.443C123.443 18.2402 122.109 17.0135 119.443 17.0135H113.491V25.3335H122.131V26.6135H113.491V35.5735H119.091C120.563 35.5735 121.715 35.3068 122.547 34.7735C123.379 34.2402 124.04 33.3335 124.531 32.0535L125.171 32.2135L124.051 35.2535C123.667 36.3202 122.867 36.8535 121.651 36.8535H110.611V19.5735ZM130.894 36.8535H129.614V19.5735C129.614 18.5495 129.39 17.7602 128.942 17.2055C128.515 16.6508 127.779 16.3735 126.734 16.3735H126.414V15.7335H128.494C129.475 15.7335 130.307 15.8935 130.99 16.2135C131.672 16.5335 132.28 17.0135 132.814 17.6535L144.014 31.5735V15.7335H145.294V37.1735H144.654L130.894 20.0535V36.8535ZM167.717 37.0135C166.693 37.0135 165.679 36.7362 164.677 36.1815C163.674 35.6055 162.874 34.4962 162.277 32.8535L161.477 30.7735H152.516L149.957 36.8535H148.517L157.477 15.7335H158.437L165.477 32.8535C166.01 34.0908 166.511 34.9442 166.981 35.4135C167.45 35.8615 168.122 36.1282 168.997 36.2135V36.8535C168.613 36.9602 168.186 37.0135 167.717 37.0135ZM160.837 29.4935L156.997 20.2135L152.997 29.4935H160.837Z" fill="white"/>
<path fill-rule="evenodd" clip-rule="evenodd" d="M181 18.3536C178.791 18.3536 177 20.1445 177 22.3536V29.3536C177 31.5628 178.791 33.3536 181 33.3536H206C208.209 33.3536 210 31.5628 210 29.3536V22.3536C210 20.1445 208.209 18.3536 206 18.3536H181ZM188.602 28.9884L189.43 31.7072H192.039L187.992 20.2384H185.031L181 31.7072H183.609L184.438 28.9884H188.602ZM187.195 24.3009L188.023 26.9572H185.047L185.867 24.3009C185.904 24.1811 185.964 23.9806 186.047 23.6993C186.13 23.4181 186.216 23.1212 186.305 22.8087C186.398 22.491 186.471 22.2254 186.523 22.0118C186.576 22.2254 186.643 22.478 186.727 22.7697C186.815 23.0561 186.901 23.34 186.984 23.6212C187.073 23.8973 187.143 24.1238 187.195 24.3009ZM200.359 21.2384C199.682 20.603 198.607 20.2853 197.133 20.2853H193.484V31.7072H195.906V27.6447H196.945C197.779 27.6447 198.479 27.5431 199.047 27.34C199.615 27.1316 200.068 26.8504 200.406 26.4962C200.75 26.142 200.997 25.7384 201.148 25.2853C201.299 24.8269 201.375 24.3478 201.375 23.8478C201.375 22.7384 201.036 21.8686 200.359 21.2384ZM195.906 22.2697H197.008C197.664 22.2697 198.148 22.4077 198.461 22.6837C198.773 22.9545 198.93 23.3712 198.93 23.9337C198.93 24.3348 198.839 24.6629 198.656 24.9181C198.474 25.1733 198.216 25.3608 197.883 25.4806C197.549 25.6004 197.156 25.6603 196.703 25.6603H195.906V22.2697ZM203.531 20.2853V31.7072H205.953V20.2853H203.531Z" fill="white"/>
</svg>
